REM GENRE "Progressive Rock"
REM DATE 1975
REM DISCID 7508E108
REM COMMENT "ExactAudioCopy v0.99pb2"
PERFORMER "Rush"
TITLE "Fly by night"
FILE "Rush - Fly by night.wav" WAVE
  TRACK 01 AUDIO
    TITLE "Track01"
    PERFORMER "Rush"
    INDEX 01 00:00:00
  TRACK 02 AUDIO
    TITLE "Track02"
    PERFORMER "Rush"
    INDEX 00 04:21:73
    INDEX 01 04:26:17
  TRACK 03 AUDIO
    TITLE "Track03"
    PERFORMER "Rush"
    INDEX 00 07:52:05
    INDEX 01 07:54:42
  TRACK 04 AUDIO
    TITLE "Track04"
    PERFORMER "Rush"
    INDEX 00 10:56:54
    INDEX 01 10:59:17
  TRACK 05 AUDIO
    TITLE "Track05"
    PERFORMER "Rush"
    INDEX 00 19:36:62
    INDEX 01 19:39:02
  TRACK 06 AUDIO
    TITLE "Track06"
    PERFORMER "Rush"
    INDEX 01 23:01:17
  TRACK 07 AUDIO
    TITLE "Track07"
    PERFORMER "Rush"
    INDEX 00 25:58:70
    INDEX 01 26:06:20
  TRACK 08 AUDIO
    TITLE "Track08"
    PERFORMER "Rush"
    INDEX 00 31:03:27
    INDEX 01 31:06:57
